HIERARCHY
ROOT Hips
{
	OFFSET	0.00	0.00	0.00
	CHANNELS 6 Xposition Yposition Zposition Zrotation Xrotation Yrotation
	JOINT LeftUpLeg
	{
		OFFSET	 0.126116	-0.014019	-0.065224
		CHANNELS 3 Zrotation Xrotation Yrotation
		JOINT LeftLeg
		{
			OFFSET	 0.000000	 0.000000	 0.569914
			CHANNELS 3 Zrotation Xrotation Yrotation
			JOINT LeftFoot
			{
				OFFSET	 0.000000	 0.000000	 0.544423
				CHANNELS 3 Zrotation Xrotation Yrotation
				JOINT LeftToeBase
				{
					OFFSET	 0.000000	 0.000000	 0.207117
					CHANNELS 3 Zrotation Xrotation Yrotation
					End Site
					{
						OFFSET	 0.000000	 0.000000	 0.207117
					}
				}
			}
		}
	}
	JOINT RightUpLeg
	{
		OFFSET	-0.124023	-0.008373	-0.065224
		CHANNELS 3 Zrotation Xrotation Yrotation
		JOINT RightLeg
		{
			OFFSET	 0.000000	 0.000000	 0.570047
			CHANNELS 3 Zrotation Xrotation Yrotation
			JOINT RightFoot
			{
				OFFSET	 0.000000	 0.000000	 0.544354
				CHANNELS 3 Zrotation Xrotation Yrotation
				JOINT RightToeBase
				{
					OFFSET	 0.000000	 0.000000	 0.207540
					CHANNELS 3 Zrotation Xrotation Yrotation
					End Site
					{
						OFFSET	 0.000000	 0.000000	 0.207540
					}
				}
			}
		}
	}
	JOINT Spine
	{
		OFFSET	 0.000184	-0.007763	 0.117403
		CHANNELS 3 Zrotation Xrotation Yrotation
		JOINT Spine1
		{
			OFFSET	 0.000000	 0.000000	 0.137269
			CHANNELS 3 Zrotation Xrotation Yrotation
			JOINT Spine2
			{
				OFFSET	 0.000000	 0.000000	 0.156879
				CHANNELS 3 Zrotation Xrotation Yrotation
				JOINT LeftShoulder
				{
					OFFSET	 0.080501	-0.002496	 0.160144
					CHANNELS 3 Zrotation Xrotation Yrotation
					JOINT LeftArm
					{
						OFFSET	 0.000000	 0.000000	 0.164363
						CHANNELS 3 Zrotation Xrotation Yrotation
						JOINT LeftForeArm
						{
							OFFSET	 0.000000	 0.000000	 0.364576
							CHANNELS 3 Zrotation Xrotation Yrotation
							JOINT LeftHand
							{
								OFFSET	 0.000000	 0.000000	 0.360812
								CHANNELS 3 Zrotation Xrotation Yrotation
								JOINT LeftHandIndex1
								{
									OFFSET	 0.000000	 0.000000	 0.086006
									CHANNELS 3 Zrotation Xrotation Yrotation
									JOINT LeftHandIndex2
									{
										OFFSET	 0.000000	 0.000000	 0.047236
										CHANNELS 3 Zrotation Xrotation Yrotation
										JOINT LeftHandIndex3
										{
											OFFSET	-0.004284	-0.000551	 0.038166
											CHANNELS 3 Zrotation Xrotation Yrotation
											End Site
											{
												OFFSET	-0.004284	-0.000551	 0.038166
											}
										}
									}
								}
							}
						}
					}
				}
				JOINT Neck
				{
					OFFSET	 0.000000	 0.000000	 0.176489
					CHANNELS 3 Zrotation Xrotation Yrotation
					JOINT Head
					{
						OFFSET	 0.000000	-0.001747	 0.077940
						CHANNELS 3 Zrotation Xrotation Yrotation
						End Site
						{
							OFFSET	 0.000000	-0.001747	 0.077940
						}
					}
				}
				JOINT RightShoulder
				{
					OFFSET	-0.080363	 0.000306	 0.159706
					CHANNELS 3 Zrotation Xrotation Yrotation
					JOINT RightArm
					{
						OFFSET	 0.000000	 0.000000	 0.164196
						CHANNELS 3 Zrotation Xrotation Yrotation
						JOINT RightForeArm
						{
							OFFSET	 0.000000	 0.000000	 0.365611
							CHANNELS 3 Zrotation Xrotation Yrotation
							JOINT RightHand
							{
								OFFSET	 0.000000	 0.000000	 0.360648
								CHANNELS 3 Zrotation Xrotation Yrotation
								JOINT RightHandIndex1
								{
									OFFSET	 0.000000	 0.000000	 0.069977
									CHANNELS 3 Zrotation Xrotation Yrotation
									JOINT RightHandIndex2
									{
										OFFSET	 0.000000	 0.000000	 0.052305
										CHANNELS 3 Zrotation Xrotation Yrotation
										JOINT RightHandIndex3
										{
											OFFSET	 0.009002	-0.000782	 0.042196
											CHANNELS 3 Zrotation Xrotation Yrotation
											End Site
											{
												OFFSET	 0.009002	-0.000782	 0.042196
											}
										}
									}
								}
							}
						}
					}
				}
			}
		}
	}
}
MOTION
Frames:    12
Frame Time: 0.03333334
-7.722526	-20.573310	-0.177813	-44.521120	 7.491668	 1.564349	 4.598269	-19.854610	 174.556400	-0.969978	-38.013150	 0.299774	 0.219718	 83.726680	-0.076381	-2.385995	 28.415380	 0.000812	-2.737606	-20.655630	-178.927200	-0.584998	-38.941840	-0.493346	-0.453182	 84.604710	 0.088742	 2.407521	 18.442660	-0.203846	 4.045278	 8.152040	-0.543744	 7.185160	 5.744025	-2.328168	 8.782224	 3.785739	 0.291688	-111.051000	 89.248270	-158.092600	 49.067230	 58.392020	-70.879520	-4.616776	-3.428392	-19.370150	 3.574159	-11.333530	-5.330846	-3.812334	 37.924440	-2.927599	-2.450526	 36.184240	 0.754587	-1.378229	 35.397820	-2.634230	 0.415661	 2.282433	-0.602766	 2.802421	 6.944567	-0.538543	 95.018040	 86.994760	 171.211100	-42.898830	 67.967170	 60.042370	-3.128145	-11.325300	 24.550450	-20.259660	-12.246060	 9.693537	 6.437017	 35.671460	-0.771858	 2.830251	 35.756010	-7.813440	-2.350882	 35.473990	 5.254307
-7.720304	-20.571370	-0.185364	-44.535140	 8.008736	 1.693636	 4.520461	-22.003070	 174.193800	-1.642505	-39.920200	-0.192366	 0.055897	 84.599200	-0.523301	-2.385706	 28.480720	-0.000606	-2.491356	-22.880870	-178.751300	-0.116805	-40.842050	-0.005005	-0.170940	 85.527230	 0.408229	 2.407689	 17.358130	-0.225078	 4.047398	 8.503305	-0.636409	 7.238188	 6.188118	-2.528222	 8.858315	 4.116640	 0.268557	-115.576500	 89.397690	-153.655600	 56.159580	 60.074840	-78.329500	-3.700001	-4.417116	-20.697570	 5.832450	-11.532460	-5.441847	-3.812334	 37.924440	-2.927599	-2.450526	 36.184240	 0.754587	-1.378229	 35.397820	-2.634230	 0.459135	 2.663136	-0.635275	 2.859569	 7.290515	-0.611629	 94.724320	 86.915360	 171.583300	-53.521450	 70.366360	 71.690420	-3.223706	-13.020630	 25.768100	-22.580120	-12.428500	 9.800748	 6.437017	 35.671460	-0.771858	 2.830251	 35.756010	-7.813440	-2.350882	 35.473990	 5.254307
-7.719770	-20.571360	-0.180297	-44.545800	 8.046258	 1.738175	 4.533575	-22.145040	 174.165900	-1.680792	-40.206440	-0.216833	 0.135800	 84.697070	-0.629055	-2.385745	 28.471560	-0.000402	-2.466802	-23.032040	-178.760300	-0.116788	-41.051410	 0.014148	-0.289739	 85.611980	 0.550840	 2.407691	 17.465990	-0.222968	 4.037043	 8.529761	-0.677544	 7.225029	 6.135627	-2.545489	 8.846260	 4.051256	 0.273254	-115.681400	 89.396720	-153.539200	 56.025300	 59.768180	-78.126640	-3.651001	-4.351696	-20.929430	 5.551848	-11.558930	-5.444171	-3.812334	 37.924440	-2.927599	-2.450526	 36.184240	 0.754587	-1.378229	 35.397820	-2.634230	 0.455704	 2.620210	-0.624602	 2.855519	 7.246442	-0.611865	 94.718910	 86.904020	 171.575100	-53.466600	 70.129820	 71.763530	-3.209827	-12.977790	 25.887840	-22.395060	-12.456740	 9.802290	 6.437017	 35.671460	-0.771858	 2.830251	 35.756010	-7.813440	-2.350882	 35.473990	 5.254307
-7.718972	-20.571100	-0.181407	-44.565190	 8.047050	 1.799384	 4.498857	-22.391760	 174.107800	-1.738985	-40.652790	-0.286579	 0.040493	 84.841320	-0.603323	-2.385547	 28.515090	-0.001349	-2.447643	-23.258460	-178.769500	-0.085731	-41.401940	 0.054475	-0.461091	 85.734190	 0.768912	 2.407672	 17.731640	-0.217780	 4.026924	 8.584780	-0.737251	 7.208844	 6.058116	-2.567698	 8.823872	 3.949254	 0.280443	-115.546900	 89.389630	-153.652000	 55.799040	 59.197660	-77.893370	-3.648485	-4.199799	-21.302460	 4.984601	-11.623020	-5.449265	-3.812334	 37.924440	-2.927599	-2.450526	 36.184240	 0.754587	-1.378229	 35.397820	-2.634230	 0.444900	 2.516634	-0.592434	 2.850175	 7.212629	-0.665831	 94.721760	 86.893100	 171.553900	-53.331930	 69.716870	 71.849820	-3.227262	-12.961600	 26.159060	-22.132420	-12.522620	 9.805901	 6.437017	 35.671460	-0.771858	 2.830251	 35.756010	-7.813440	-2.350882	 35.473990	 5.254307
-7.718446	-20.570890	-0.182090	-44.578530	 8.038977	 1.817518	 4.502173	-22.568350	 174.088200	-1.754540	-40.901680	-0.299818	 0.108994	 84.918080	-0.682804	-2.385370	 28.555810	-0.002226	-2.436817	-23.388740	-178.765900	-0.075663	-41.607320	 0.073126	-0.552574	 85.798480	 0.880815	 2.407665	 17.834630	-0.215764	 4.024973	 8.622796	-0.758942	 7.201726	 6.017262	-2.576332	 8.810333	 3.893921	 0.284282	-115.387000	 89.382290	-153.796800	 55.650670	 58.888230	-77.764360	-3.665378	-4.113666	-21.515390	 4.669177	-11.665270	-5.452414	-3.812334	 37.924440	-2.927599	-2.450526	 36.184240	 0.754587	-1.378229	 35.397820	-2.634230	 0.438491	 2.448299	-0.581317	 2.844814	 7.204445	-0.693595	 94.726650	 86.888820	 171.538900	-53.225780	 69.481800	 71.869070	-3.245594	-12.970840	 26.337910	-21.998830	-12.567080	 9.808527	 6.437017	 35.671460	-0.771858	 2.830251	 35.756010	-7.813440	-2.350882	 35.473990	 5.254307
-7.717557	-20.570560	-0.183132	-44.605220	 8.033740	 1.829028	 4.514474	-22.853060	 174.066000	-1.784240	-41.265470	-0.318287	 0.201655	 85.027360	-0.789778	-2.385213	 28.592190	-0.003015	-2.426077	-23.588150	-178.742200	-0.063066	-41.917610	 0.097288	-0.682172	 85.889300	 1.035462	 2.407640	 17.966050	-0.213192	 4.026181	 8.686971	-0.780774	 7.192566	 5.961254	-2.583658	 8.788825	 3.817005	 0.289502	-115.105700	 89.369130	-154.051900	 55.409660	 58.475150	-77.589470	-3.652335	-4.022786	-21.829240	 4.308405	-11.732860	-5.456870	-3.812334	 37.924440	-2.927599	-2.450526	 36.184240	 0.754587	-1.378229	 35.397820	-2.634230	 0.428816	 2.342467	-0.571765	 2.832738	 7.199111	-0.715136	 94.736910	 86.883350	 171.512800	-53.031160	 69.146010	 71.853680	-3.273622	-12.999820	 26.619870	-21.817940	-12.638550	 9.812928	 6.437017	 35.671460	-0.771858	 2.830251	 35.756010	-7.813440	-2.350882	 35.473990	 5.254307
-7.716444	-20.570080	-0.184481	-44.647760	 8.048315	 1.837243	 4.543031	-23.183790	 174.043800	-1.820437	-41.728220	-0.333651	 0.316386	 85.162760	-0.912443	-2.385120	 28.612710	-0.003458	-2.416029	-23.863470	-178.709800	-0.053790	-42.325850	 0.121884	-0.840203	 86.000660	 1.216752	 2.407616	 18.119300	-0.210192	 4.029592	 8.780396	-0.799714	 7.179559	 5.894667	-2.585922	 8.758350	 3.725251	 0.295527	-114.731400	 89.350780	-154.385900	 55.063200	 58.043300	-77.383430	-3.525221	-3.997666	-22.230260	 4.095445	-11.825660	-5.461650	-3.812334	 37.924440	-2.927599	-2.450526	 36.184240	 0.754587	-1.378229	 35.397820	-2.634230	 0.415197	 2.205270	-0.565128	 2.811275	 7.195521	-0.714936	 94.753220	 86.876140	 171.473900	-52.743630	 68.737110	 71.799300	-3.302310	-13.054340	 26.997700	-21.609920	-12.739880	 9.815841	 6.437017	 35.671460	-0.771858	 2.830251	 35.756010	-7.813440	-2.350882	 35.473990	 5.254307
-7.715243	-20.569470	-0.185969	-44.693100	 8.071866	 1.846154	 4.584742	-23.516050	 174.025900	-1.860858	-42.224490	-0.344854	 0.432920	 85.305060	-1.030810	-2.385016	 28.636640	-0.003974	-2.406533	-24.185720	-178.676700	-0.054130	-42.776270	 0.140676	-1.003670	 86.116980	 1.395195	 2.407568	 18.283950	-0.206964	 4.030682	 8.889984	-0.819000	 7.163800	 5.824707	-2.588396	 8.726100	 3.631446	 0.301598	-114.315100	 89.330020	-154.760300	 54.653530	 57.692550	-77.181960	-3.305532	-4.062707	-22.666850	 4.105976	-11.930680	-5.465826	-3.812334	 37.924440	-2.927599	-2.450526	 36.184240	 0.754587	-1.378229	 35.397820	-2.634230	 0.399851	 2.061465	-0.555684	 2.789771	 7.187701	-0.700807	 94.772110	 86.866750	 171.427200	-52.420410	 68.320880	 71.750530	-3.317068	-13.125910	 27.411790	-21.411070	-12.862300	 9.810187	 6.437017	 35.671460	-0.771858	 2.830251	 35.756010	-7.813440	-2.350882	 35.473990	 5.254307
-7.713834	-20.568710	-0.187683	-44.744790	 8.105309	 1.854959	 4.641675	-23.888980	 174.012800	-1.911724	-42.782180	-0.354605	 0.555285	 85.462920	-1.151657	-2.384881	 28.665260	-0.004597	-2.395473	-24.580930	-178.640400	-0.067867	-43.294140	 0.152942	-1.183201	 86.245270	 1.580677	 2.407504	 18.482330	-0.203070	 4.028119	 9.021632	-0.844315	 7.143612	 5.746656	-2.589375	 8.695174	 3.530466	 0.308207	-113.850400	 89.307900	-155.183100	 54.191620	 57.344920	-77.006530	-3.093276	-4.154669	-23.180120	 4.156789	-12.052950	-5.470359	-3.812334	 37.924440	-2.927599	-2.450526	 36.184240	 0.754587	-1.378229	 35.397820	-2.634230	 0.387123	 1.908411	-0.546181	 2.770902	 7.169632	-0.663760	 94.793590	 86.853720	 171.369800	-52.055950	 67.880980	 71.729960	-3.310177	-13.215110	 27.876640	-21.206600	-12.990390	 9.818749	 6.437017	 35.671460	-0.771858	 2.830251	 35.756010	-7.813440	-2.350882	 35.473990	 5.254307
-7.712196	-20.567730	-0.189639	-44.802080	 8.153968	 1.854977	 4.705691	-24.324020	 174.002800	-1.969919	-43.405940	-0.365337	 0.685497	 85.637940	-1.279669	-2.384656	 28.713960	-0.005655	-2.381117	-25.061290	-178.599700	-0.091462	-43.884180	 0.161896	-1.382455	 86.386800	 1.780648	 2.407409	 18.729100	-0.198215	 4.019432	 9.172525	-0.866588	 7.120110	 5.656912	-2.586135	 8.667509	 3.418007	 0.315749	-113.380800	 89.283720	-155.607100	 53.684640	 56.992620	-76.865070	-3.023985	-4.213616	-23.790520	 4.092997	-12.192820	-5.475743	-3.812334	 37.924440	-2.927599	-2.450526	 36.184240	 0.754587	-1.378229	 35.397820	-2.634230	 0.379175	 1.744685	-0.545146	 2.756070	 7.137144	-0.606619	 94.816490	 86.835170	 171.301300	-51.657840	 67.422230	 71.762070	-3.271801	-13.319960	 28.387770	-21.000660	-13.136100	 9.827770	 6.437017	 35.671460	-0.771858	 2.830251	 35.756010	-7.813440	-2.350882	 35.473990	 5.254307
-7.710403	-20.566560	-0.191726	-44.862880	 8.218008	 1.845661	 4.746406	-24.811070	 173.994000	-2.021425	-44.063730	-0.385276	 0.820267	 85.821430	-1.421177	-2.384397	 28.772700	-0.006926	-2.362876	-25.605760	-178.556200	-0.115016	-44.515690	 0.173689	-1.591176	 86.535130	 1.991988	 2.407255	 19.020820	-0.192464	 4.006492	 9.335675	-0.875974	 7.095504	 5.555446	-2.576754	 8.645026	 3.292507	 0.324419	-112.965500	 89.259020	-155.972500	 53.157630	 56.662650	-76.735420	-3.107602	-4.228455	-24.470930	 3.906124	-12.341720	-5.481562	-3.812334	 37.924440	-2.927599	-2.450526	 36.184240	 0.754587	-1.378229	 35.397820	-2.634230	 0.376928	 1.559706	-0.550235	 2.747283	 7.096924	-0.540540	 94.838680	 86.811440	 171.225400	-51.253320	 66.973820	 71.860310	-3.197130	-13.432030	 28.911950	-20.804090	-13.290570	 9.836869	 6.437017	 35.671460	-0.771858	 2.830251	 35.756010	-7.813440	-2.350882	 35.473990	 5.254307
-7.708100	-20.565000	-0.194268	-44.938610	 8.326600	 1.803500	 4.749114	-25.450050	 174.009800	-2.124393	-44.870590	-0.464958	 0.686818	 86.047050	-1.344936	-2.384027	 28.851560	-0.008642	-2.298250	-26.296580	-178.502500	-0.120051	-45.300170	 0.230794	-1.502373	 86.717590	 1.941816	 2.407009	 19.407250	-0.184844	 3.990272	 9.549728	-0.870343	 7.067132	 5.424895	-2.556846	 8.625636	 3.130508	 0.335905	-112.572900	 89.230010	-156.298600	 52.525010	 56.305070	-76.591390	-3.284242	-4.232388	-25.341670	 3.647289	-12.524590	-5.488369	-3.812334	 37.924440	-2.927599	-2.450526	 36.184240	 0.754587	-1.378229	 35.397820	-2.634230	 0.381846	 1.320579	-0.557396	 2.744910	 7.037606	-0.455826	 94.862410	 86.776700	 171.128500	-50.754150	 66.478370	 72.014570	-3.057715	-13.566260	 29.532190	-20.582270	-13.479430	 9.847584	 6.437017	 35.671460	-0.771858	 2.830251	 35.756010	-7.813440	-2.350882	 35.473990	 5.254307
